<svg width="22" height="22" viewBox="0 0 22 22" fill="none" xmlns="http://www.w3.org/2000/svg">
<path d="M11 0C17.075 0 22 4.925 22 11C22 17.075 17.075 22 11 22C4.925 22 0 17.075 0 11C0 4.925 4.925 0 11 0ZM8.525 13.476C8.19998 13.151 7.94216 12.7651 7.76626 12.3405C7.59036 11.9158 7.49982 11.4607 7.49982 11.001C7.49982 10.5414 7.59036 10.0862 7.76626 9.66154C7.94216 9.23688 8.19998 8.85102 8.525 8.526C8.85002 8.20098 9.23588 7.94316 9.66054 7.76726C10.0852 7.59136 10.5403 7.50082 11 7.50082C11.4597 7.50082 11.9148 7.59136 12.3395 7.76726C12.7641 7.94316 13.15 8.20098 13.475 8.526L14.182 9.233L15.596 7.819L14.889 7.112C14.1198 6.34279 13.1398 5.81894 12.0729 5.6067C11.006 5.39446 9.90013 5.50336 8.89512 5.91964C7.89012 6.33591 7.03112 7.04086 6.42676 7.94534C5.8224 8.84981 5.49983 9.91319 5.49983 11.001C5.49983 12.0888 5.8224 13.1522 6.42676 14.0567C7.03112 14.9611 7.89012 15.6661 8.89512 16.0824C9.90013 16.4986 11.006 16.6075 12.0729 16.3953C13.1398 16.1831 14.1198 15.6592 14.889 14.89L15.596 14.183L14.182 12.768L13.475 13.476C13.15 13.801 12.7641 14.0589 12.3395 14.2348C11.9148 14.4107 11.4597 14.5013 11 14.5013C10.5403 14.5013 10.0852 14.4107 9.66053 14.2348C9.23586 14.0589 8.85001 13.801 8.525 13.476Z" fill="#F3F3F3"/>
</svg>
