<svg width="100" height="126" viewBox="0 0 100 126" fill="none" xmlns="http://www.w3.org/2000/svg">
<path d="M68 10H78C79.103 10 80 9.103 80 8V6C80 4.897 79.103 4 78 4H68C66.897 4 66 4.897 66 6V8C66 9.103 66.897 10 68 10ZM68 6H78L77.997 8H68V6Z" fill="white"/>
<path d="M75 13C64.523 13 56 21.523 56 32C56 42.477 64.523 51 75 51C85.477 51 94 42.477 94 32C94 21.523 85.477 13 75 13ZM75 49C65.626 49 58 41.374 58 32C58 22.626 65.626 15 75 15C84.374 15 92 22.626 92 32C92 41.374 84.374 49 75 49Z" fill="white"/>
<path d="M75 17C66.729 17 60 23.729 60 32C60 40.271 66.729 47 75 47C83.271 47 90 40.271 90 32C90 23.729 83.271 17 75 17ZM75 45C67.832 45 62 39.168 62 32C62 24.832 67.832 19 75 19C82.168 19 88 24.832 88 32C88 39.168 82.168 45 75 45Z" fill="white"/>
<path d="M75 24C70.589 24 67 27.589 67 32C67 36.411 70.589 40 75 40C79.411 40 83 36.411 83 32C83 27.589 79.411 24 75 24ZM75 38C71.691 38 69 35.309 69 32C69 28.691 71.691 26 75 26C78.309 26 81 28.691 81 32C81 35.309 78.309 38 75 38Z" fill="white"/>
<path d="M89.244 12.03C87.382 11.562 84.849 6.471 83.896 4.554C82.244 1.234 80.646 0 78 0H68C65.354 0 63.756 1.234 62.104 4.555C61.558 5.653 61.177 6.754 60.808 7.819C60.519 8.653 60.263 9.357 59.994 9.949C59.967 8.319 58.637 7 57 7H51C49.346 7 48 8.346 48 10V12H45C37.598 12 33 16.215 33 23V33H31V29C31 27.346 29.654 26 28 26H26C24.346 26 23 27.346 23 29V33H21V31.915C21 30.308 19.692 29 18.085 29H5C2.243 29 0 31.243 0 34V47.998C0 50.755 2.243 52.998 5 52.998H18.085C19.692 52.998 21 51.69 21 50.083V49H23V54C23 57.859 26.14 61 30 61H55V70H53C51.346 70 50 71.346 50 73V77C50 78.302 50.839 79.402 52 79.816V87C52 89.597 52.518 91.375 53.065 93.258C53.401 94.413 53.749 95.608 54 97.084V125C54 125.553 54.448 126 55 126H71C71.552 126 72 125.553 72 125V97.084C72.251 95.607 72.599 94.413 72.935 93.258C73.482 91.375 74 89.597 74 87V79.816C75.161 79.402 76 78.302 76 77V73C76 71.346 74.654 70 73 70H71V61H79C79 61.197 79.059 61.391 79.168 61.555L81 64.303V66C81 67.654 82.346 69 84 69H86C87.654 69 89 67.654 89 66V64.303L90.832 61.555C90.941 61.391 91 61.197 91 61H93C94.654 61 96 59.654 96 58V56C96 55.509 95.87 55.053 95.661 54.644C98.237 53.642 100 50.692 100 48V26C100 18.271 96.893 14.226 89.244 12.03ZM50 10C50 9.448 50.449 9 51 9H57C57.551 9 58 9.448 58 10V11.972C57.969 11.979 57.943 11.994 57.91 12H50V10ZM44.982 14C47.984 14.054 50.15 15.134 51.246 17.122C52.42 19.254 52.084 21.934 51.105 23.553L50.105 25.553C50.036 25.691 50 25.845 50 26V51C50 51.916 48.968 53 48.096 53H36.611C35.723 53 35.001 52.256 35.001 51.342L35 23C35 17.364 38.738 14 44.982 14ZM31 49H33.001V51.342C33.001 51.942 33.158 52.5 33.411 53H32C31.449 53 31 52.552 31 52V49ZM25 29C25 28.448 25.449 28 26 28H28C28.551 28 29 28.448 29 29V33H25V29ZM2 47.998V34C2 32.346 3.346 31 5 31H10V50.998H5C3.346 50.998 2 49.652 2 47.998ZM19 50.083C19 50.588 18.589 50.998 18.085 50.998H12V31H18.085C18.589 31 19 31.41 19 31.915V50.083ZM21 35H33V47H21V35ZM70 102H56V100H70V102ZM56 124V104H70V124H56ZM71.015 92.699C70.656 93.931 70.286 95.205 70.014 96.836C70.004 96.89 70 96.945 70 97V98H56V97C56 96.945 55.996 96.89 55.986 96.836C55.715 95.205 55.344 93.932 54.985 92.699C54.457 90.882 54 89.312 54 87V80H72V87C72 89.312 71.543 90.882 71.015 92.699ZM74 73V77C74 77.552 73.551 78 73 78H53C52.449 78 52 77.552 52 77V73C52 72.448 52.449 72 53 72H73C73.551 72 74 72.448 74 73ZM69 70H57V61H69V70ZM30 59C27.243 59 25 56.757 25 54V49H29V52C29 53.654 30.346 55 32 55H79V59H30ZM86 67H84C83.449 67 83 66.552 83 66V65H87V66C87 66.552 86.551 67 86 67ZM89 60.697L87.465 63H82.535L81 60.697V55H89V60.697ZM94 58C94 58.552 93.551 59 93 59H91V55H93C93.551 55 94 55.448 94 56V58ZM98 48C98 50.312 96.16 53 93.787 53C93.694 53 93.61 53.029 93.524 53.053C93.353 53.023 93.179 53 93 53H51.371C51.757 52.39 52 51.7 52 51V26.235L52.854 24.519C54.32 22.104 54.379 18.665 52.997 16.157C52.531 15.311 51.905 14.598 51.164 14H58C58.055 14 58.11 13.995 58.165 13.986C58.606 13.912 58.986 13.77 59.339 13.599C59.408 13.574 59.466 13.535 59.527 13.496C61.265 12.54 62.001 10.488 62.698 8.472C63.046 7.467 63.406 6.428 63.895 5.445C65.344 2.533 66.414 2 68 2H78C79.586 2 80.656 2.533 82.104 5.445C84.443 10.146 86.469 13.395 88.724 13.961C95.486 15.902 98 19.166 98 26V48Z" fill="white"/>
<path d="M93 45C91.346 45 90 46.346 90 48C90 49.654 91.346 51 93 51C94.654 51 96 49.654 96 48C96 46.346 94.654 45 93 45ZM93 49C92.449 49 92 48.552 92 48C92 47.448 92.449 47 93 47C93.551 47 94 47.448 94 48C94 48.552 93.551 49 93 49Z" fill="white"/>
<path d="M63 82C59.14 82 56 85.141 56 89C56 92.859 59.14 96 63 96C66.86 96 70 92.859 70 89C70 85.141 66.86 82 63 82ZM63 94C60.243 94 58 91.757 58 89C58 86.243 60.243 84 63 84C65.757 84 68 86.243 68 89C68 91.757 65.757 94 63 94Z" fill="white"/>
<path d="M63 106C61.346 106 60 107.346 60 109C60 110.654 61.346 112 63 112C64.654 112 66 110.654 66 109C66 107.346 64.654 106 63 106ZM63 110C62.449 110 62 109.552 62 109C62 108.448 62.449 108 63 108C63.551 108 64 108.448 64 109C64 109.552 63.551 110 63 110Z" fill="white"/>
<path d="M63 114C61.346 114 60 115.346 60 117C60 118.654 61.346 120 63 120C64.654 120 66 118.654 66 117C66 115.346 64.654 114 63 114ZM63 118C62.449 118 62 117.552 62 117C62 116.448 62.449 116 63 116C63.551 116 64 116.448 64 117C64 117.552 63.551 118 63 118Z" fill="white"/>
<path d="M27 45C29.206 45 31 43.206 31 41C31 38.794 29.206 37 27 37C24.794 37 23 38.794 23 41C23 43.206 24.794 45 27 45ZM27 39C28.103 39 29 39.897 29 41C29 42.103 28.103 43 27 43C25.897 43 25 42.103 25 41C25 39.897 25.897 39 27 39Z" fill="white"/>
</svg>
