<svg width="128" height="128" viewBox="0 0 128 128" fill="none" xmlns="http://www.w3.org/2000/svg">
<path d="M5.7 9.50005L5 10.15V55.6V101.05L5.7 101.75L6.4 102.45L32.25 102.4L58.15 102.35L59.05 99.05L59.95 95.75L76.4 79.25C86.65 68.95 93.4 62.4 94.25 61.85C96.35 60.45 97.95 59.9501 100.55 59.8L102.85 59.7001V58.7001V57.6501H110.95H119V62.85V68L120.45 67.85C121.45 67.75 122.05 67.55 122.45 67.2L123 66.7V38.3V9.95005L122.4 9.40005L121.85 8.80005H64.1H6.35L5.7 9.50005ZM25.4 21.95V31.1H17.3H9.2V21.95V12.8H17.3H25.4V21.95ZM119 21.95V31.1H110.9H102.8V21.95V12.8H110.9H119V21.95ZM25.4 44.4501V53.6H17.3H9.2V44.4501V35.3H17.3H25.4V44.4501ZM119 44.4501V53.6H110.9H102.8V44.4501V35.3H110.9H119V44.4501ZM68.1 46.6501C74.35 50.6001 79.65 54.1 79.9 54.35C80.4 54.95 80.4 56.25 79.9 56.85C79.35 57.45 57 71.6501 56.3 71.8001C55.45 72.0501 54.5 71.5 54.15 70.6501C53.65 69.5 53.65 41.8001 54.15 40.6501C54.55 39.7001 55.1 39.3001 56.05 39.4001C56.45 39.4001 61 42.1501 68.1 46.6501ZM25.4 66.75V75.9H17.3H9.2V66.75V57.6H17.3H25.4V66.75ZM25.4 89.25V98.4H17.3H9.2V89.25V80.1H17.3H25.4V89.25Z" fill="white"/>
<path d="M98.8499 66.25C97.6999 66.65 96.45 67.85 81.4499 82.8L65.35 98.9L63.2 106.8C61.2 114.1 61 114.75 60.2 115.55C59.2 116.65 59.1 117.55 59.95 118.5C60.75 119.45 61.95 119.4 63 118.4C63.75 117.65 64.4499 117.45 71.8499 115.4L79.9 113.2L95.75 97.3C106.7 86.35 111.8 81.05 112.15 80.35C112.9 78.95 112.9 76.45 112.25 75.05C111.65 73.8 104.75 66.95 103.55 66.4C102.3 65.8 100.35 65.7 98.8499 66.25ZM105.4 73.45C109.9 77.9 109.85 77.45 105.6 81.7L102.5 84.8L98.15 80.45L93.8 76.1L96.5 73.4C98 71.9 99.55 70.45 99.9 70.25C101.15 69.45 101.65 69.75 105.4 73.45ZM95.25 83.5L99.5 87.75L89.1 98.15L78.8 108.5L74.4499 104.15L70.0999 99.8L80.4 89.5C86.1 83.8 90.75 79.2 90.85 79.2C90.95 79.2 92.9 81.1 95.25 83.5ZM71.5999 107.2C73.6999 109.3 74.65 110.4 74.4 110.45C73.3 110.85 66.1 112.7 66 112.65C65.8 112.55 68.1 104 68.3 104C68.4 104.05 69.9 105.5 71.5999 107.2Z" fill="white"/>
</svg>
