<svg width="128" height="128" viewBox="0 0 128 128" fill="none" xmlns="http://www.w3.org/2000/svg">
<path d="M20 22C18.346 22 17 23.346 17 25C17 26.654 18.346 28 20 28C21.654 28 23 26.654 23 25C23 23.346 21.654 22 20 22ZM20 26C19.448 26 19 25.551 19 25C19 24.449 19.448 24 20 24C20.552 24 21 24.449 21 25C21 25.551 20.552 26 20 26Z" fill="#F3F3F3"/>
<path d="M109 27.9761C110.654 27.9761 112 26.6301 112 24.9761C112 23.3221 110.654 21.9761 109 21.9761C107.346 21.9761 106 23.3221 106 24.9761C106 26.6301 107.346 27.9761 109 27.9761ZM109 23.9761C109.552 23.9761 110 24.4251 110 24.9761C110 25.5271 109.552 25.9761 109 25.9761C108.448 25.9761 108 25.5271 108 24.9761C108 24.4251 108.448 23.9761 109 23.9761Z" fill="#F3F3F3"/>
<path d="M23 102.976C23 101.322 21.654 99.9761 20 99.9761C18.346 99.9761 17 101.322 17 102.976C17 104.63 18.346 105.976 20 105.976C21.654 105.976 23 104.63 23 102.976ZM19 102.976C19 102.425 19.448 101.976 20 101.976C20.552 101.976 21 102.425 21 102.976C21 103.527 20.552 103.976 20 103.976C19.448 103.976 19 103.527 19 102.976Z" fill="#F3F3F3"/>
<path d="M108 99.9761C106.346 99.9761 105 101.322 105 102.976C105 104.63 106.346 105.976 108 105.976C109.654 105.976 111 104.63 111 102.976C111 101.322 109.654 99.9761 108 99.9761ZM108 103.976C107.448 103.976 107 103.527 107 102.976C107 102.425 107.448 101.976 108 101.976C108.552 101.976 109 102.425 109 102.976C109 103.527 108.552 103.976 108 103.976Z" fill="#F3F3F3"/>
<path d="M84.509 51.3011L106.56 31.5311C107.318 31.8131 108.133 31.9751 108.988 31.9751C109.008 31.9751 109.027 31.9721 109.046 31.9721L121.274 47.6881C122.073 48.5621 123.13 49.0251 124.131 49.0251C124.745 49.0251 125.338 48.8501 125.837 48.4881C126.406 48.0751 128.091 46.4231 125.879 42.5161L121.881 35.5161C120.797 33.3461 119.662 31.2111 118.718 30.3051L115.611 27.1981C115.844 26.5021 115.976 25.7601 115.976 24.9861C115.976 21.1331 112.841 17.9981 108.988 17.9981C108.641 17.9981 108.302 18.0321 107.969 18.0811L95.715 2.33311C94.424 0.923108 92.462 0.579108 91.151 1.53211C90.582 1.94511 88.897 3.59711 91.109 7.50411L95.104 14.4981C96.136 16.5661 97.322 18.8051 98.27 19.7151L102.142 23.5871C102.049 24.0401 102.001 24.5091 102.001 24.9881C102.001 25.0761 102.011 25.1611 102.014 25.2471L84.419 35.9101C82.9 30.5661 78.499 26.4231 73 25.3021V25.0001C73 24.9341 72.993 24.8691 72.98 24.8041C72.532 22.5641 70.484 21.0001 68 21.0001H60C57.516 21.0001 55.468 22.5641 55.02 24.8041C55.007 24.8691 55 24.9341 55 25.0001V25.3021C49.508 26.4221 45.111 30.5581 43.587 35.9141L26.926 25.8161C26.956 25.5521 26.976 25.2851 26.976 25.0121C26.976 24.2481 26.848 23.5141 26.62 22.8251L29.716 19.7291C30.679 18.8051 31.864 16.5661 32.892 14.5031L36.894 7.50011C39.104 3.59711 37.419 1.94511 36.85 1.53211C35.538 0.577108 33.576 0.923108 32.235 2.39411L20.075 18.0291C20.046 18.0291 20.018 18.0251 19.988 18.0251C16.135 18.0251 13.001 21.1601 13.001 25.0131C13.001 25.5031 13.053 25.9801 13.149 26.4421L9.29801 30.2931C8.33901 31.2131 7.20401 33.3491 6.12201 35.5191L2.12001 42.5221C-0.0899899 46.4251 1.59501 48.0771 2.16401 48.4901C2.65801 48.8491 3.24501 49.0241 3.85501 49.0241C4.86601 49.0241 5.94301 48.5451 6.77901 47.6281L18.995 31.9221C19.32 31.9681 19.649 32.0001 19.987 32.0001C20.583 32.0001 21.16 31.9171 21.713 31.7761L43.491 51.3011L44.554 75.7461L21.713 96.2241C21.16 96.0831 20.584 96.0001 19.987 96.0001C19.649 96.0001 19.319 96.0321 18.994 96.0791L6.72801 80.3121C5.43701 78.9011 3.47601 78.5591 2.16401 79.5111C1.59501 79.9241 -0.0899897 81.5761 2.12201 85.4831L6.11901 92.4811C7.20301 94.6511 8.33801 96.7871 9.28301 97.6941L13.149 101.56C13.053 102.021 13.001 102.499 13.001 102.989C13.001 106.842 16.136 109.977 19.988 109.977C20.017 109.977 20.045 109.973 20.075 109.973L32.287 125.669C33.086 126.543 34.143 127.007 35.144 127.007C35.758 127.007 36.351 126.832 36.85 126.47C37.419 126.056 39.104 124.405 36.892 120.498L32.897 113.504C31.865 111.436 30.679 109.197 29.731 108.287L26.62 105.176C26.848 104.487 26.976 103.753 26.976 102.989C26.976 102.717 26.956 102.45 26.926 102.185L46.11 90.5571C47.771 93.7841 51.128 96.0001 55 96.0001H73C76.876 96.0001 80.237 93.7781 81.896 90.5601L101.052 102.17C101.021 102.439 101 102.71 101 102.987C101 103.758 101.13 104.498 101.362 105.192L98.284 108.27C97.321 109.194 96.136 111.433 95.108 113.496L91.106 120.499C88.896 124.402 90.581 126.054 91.15 126.467C91.644 126.826 92.231 127.001 92.841 127.001C93.852 127.001 94.929 126.522 95.765 125.605L107.925 109.971C107.946 109.971 107.966 109.974 107.987 109.974C111.841 109.974 114.975 106.839 114.975 102.986C114.975 102.22 114.847 101.484 114.618 100.794L117.692 97.7201C118.651 96.8001 119.786 94.6641 120.868 92.4941L124.87 85.4911C127.08 81.5881 125.395 79.9361 124.826 79.5231C123.514 78.5681 121.552 78.9141 120.211 80.3851L108.064 96.0031C108.038 96.0031 108.013 95.9991 107.988 95.9991C107.399 95.9991 106.829 96.0801 106.282 96.2181L83.447 75.7471L84.509 51.3011ZM117.318 31.7351C118.16 32.5431 119.563 35.3531 120.091 36.4111C120.099 36.4281 120.132 36.4941 120.142 36.5101L124.14 43.5071C125.177 45.3391 125.15 46.5171 124.661 46.8721C124.244 47.1741 123.378 47.0291 122.799 46.4011L111.275 31.5841C112.643 31.1081 113.816 30.2211 114.649 29.0681L117.318 31.7351ZM113.976 24.9881C113.976 27.7381 111.739 29.9761 108.988 29.9761C106.238 29.9761 104.001 27.7391 104.001 24.9881C104.001 22.2371 106.237 20.0001 108.987 20.0001C111.738 20.0001 113.976 22.2371 113.976 24.9881ZM99.669 18.2861C98.826 17.4771 97.422 14.6641 96.894 13.6051C96.885 13.5881 96.855 13.5281 96.845 13.5121L92.847 6.51511C91.81 4.68311 91.838 3.50511 92.326 3.15011C92.737 2.84811 93.606 2.99111 94.187 3.62111L105.927 18.7151C104.664 19.3341 103.614 20.3191 102.919 21.5361L99.669 18.2861ZM102.417 27.3411C102.87 28.6021 103.673 29.6941 104.711 30.5021L84.63 48.5051L85 40.0001C85 39.3161 84.938 38.6481 84.849 37.9881L102.417 27.3411ZM60 23.0001H68C69.241 23.0001 70.615 23.6381 70.98 25.0501C70.655 25.0281 70.331 25.0001 70 25.0001H58C57.669 25.0001 57.345 25.0281 57.02 25.0501C57.385 23.6381 58.759 23.0001 60 23.0001ZM33.761 3.68211C34.393 2.99211 35.261 2.84911 35.674 3.15011C36.162 3.50411 36.191 4.68311 35.155 6.51111L31.155 13.5111C31.145 13.5271 31.115 13.5871 31.106 13.6041C30.578 14.6631 29.173 17.4771 28.316 18.3001L25.664 20.9521C24.835 19.7961 23.664 18.9051 22.298 18.4251L33.761 3.68211ZM5.25201 46.3391C4.61901 47.0291 3.75101 47.1721 3.33901 46.8711C2.85101 46.5171 2.82201 45.3381 3.85801 43.5101L7.85801 36.5101C7.86801 36.4941 7.90101 36.4281 7.90901 36.4111C8.43701 35.3531 9.84101 32.5431 10.697 31.7211L13.933 28.4851C14.632 29.6991 15.684 30.6811 16.949 31.2951L5.25201 46.3391ZM15 25.0121C15 22.2621 17.237 20.0241 19.987 20.0241C22.738 20.0241 24.975 22.2611 24.975 25.0121C24.975 27.7631 22.738 30.0001 19.987 30.0001C17.237 30.0001 15 27.7631 15 25.0121ZM23.734 30.9011C24.893 30.1611 25.82 29.0931 26.38 27.8241L43.156 37.9921C43.064 38.6651 43 39.3461 43.001 40.0441L43.369 48.5051L23.734 30.9011ZM10.682 96.2651C9.84001 95.4561 8.43701 92.6451 7.90801 91.5871C7.90001 91.5701 7.86801 91.5061 7.85801 91.4901L3.86001 84.4931C2.82301 82.6611 2.85101 81.4831 3.33901 81.1281C3.75001 80.8281 4.61901 80.9701 5.20001 81.6001L16.948 96.7051C15.683 97.3201 14.631 98.3011 13.932 99.5151L10.682 96.2651ZM15 102.988C15 100.238 17.237 98.0001 19.987 98.0001C22.738 98.0001 24.975 100.237 24.975 102.988C24.975 105.739 22.738 107.976 19.987 107.976C17.237 107.976 15 105.738 15 102.988ZM28.331 109.714C29.174 110.523 30.578 113.336 31.106 114.395C31.115 114.412 31.145 114.472 31.155 114.488L35.153 121.485C36.19 123.317 36.162 124.495 35.674 124.85C35.261 125.149 34.394 125.008 33.813 124.379L22.299 109.575C23.665 109.094 24.836 108.204 25.665 107.048L28.331 109.714ZM26.38 100.176C25.82 98.9071 24.893 97.8391 23.734 97.0991L44.666 78.3321L45 86.0001C45 86.9241 45.136 87.8161 45.372 88.6661L26.38 100.176ZM56.219 94.0001L56.969 90.2431C57.295 88.9431 58.569 88.0001 60 88.0001H68C69.431 88.0001 70.705 88.9431 71.02 90.1961L71.78 94.0001H56.219ZM73.811 93.9591L72.969 89.7571C72.426 87.5801 70.335 86.0001 68 86.0001H60C57.665 86.0001 55.574 87.5801 55.02 89.8041L54.189 93.9591C50.158 93.5511 47 90.1351 47 85.9571L45.47 50.7841V50.7801L45 40.0001C45 39.1881 45.084 38.3951 45.228 37.6241V37.6221C46.35 31.5871 51.645 27.0001 58 27.0001H70C76.356 27.0001 81.652 31.5891 82.773 37.5951C82.775 37.6141 82.778 37.6311 82.781 37.6501C82.918 38.4001 83 39.1691 83 39.9571L81 86.0001C81 90.1371 77.843 93.5511 73.811 93.9591ZM94.239 124.318C93.606 125.008 92.737 125.15 92.326 124.85C91.838 124.496 91.809 123.317 92.845 121.489L96.845 114.489C96.855 114.473 96.885 114.413 96.894 114.396C97.422 113.337 98.827 110.523 99.684 109.7L102.322 107.062C103.155 108.217 104.328 109.105 105.697 109.582L94.239 124.318ZM107.987 107.976C105.237 107.976 103 105.739 103 102.988C103 100.237 105.237 98.0001 107.987 98.0001C110.738 98.0001 112.975 100.237 112.975 102.988C112.975 105.739 110.738 107.976 107.987 107.976ZM121.737 81.6751C122.369 80.9841 123.237 80.8421 123.65 81.1431C124.138 81.4971 124.167 82.6761 123.131 84.5041L119.131 91.5041C119.121 91.5201 119.088 91.5861 119.08 91.6031C118.552 92.6611 117.148 95.4711 116.292 96.2931L113.661 98.9241C112.83 97.7671 111.657 96.8771 110.289 96.3971L121.737 81.6751ZM104.256 97.0901C103.094 97.8281 102.164 98.8961 101.601 100.165L82.633 88.6691C82.865 87.8301 82.999 86.9531 82.999 86.0441L83.334 78.3331L104.256 97.0901Z" fill="#F3F3F3"/>
<path d="M73 34H55C52.243 34 50 36.243 50 39V47C50 49.757 52.243 52 55 52H73C75.757 52 78 49.757 78 47V39C78 36.243 75.757 34 73 34ZM76 47C76 48.654 74.654 50 73 50H55C53.346 50 52 48.654 52 47V39C52 37.346 53.346 36 55 36H73C74.654 36 76 37.346 76 39V47Z" fill="#F3F3F3"/>
</svg>
