<svg width="128" height="128" viewBox="0 0 128 128" fill="none" xmlns="http://www.w3.org/2000/svg">
<path d="M50 26C50 18.28 43.72 12 36 12C28.28 12 22 18.28 22 26C22 33.72 28.28 40 36 40C43.72 40 50 33.72 50 26ZM36 36C30.48 36 26 31.52 26 26C26 20.48 30.48 16 36 16C41.52 16 46 20.48 46 26C46 31.52 41.52 36 36 36Z" fill="white"/>
<path d="M122.001 4H18.0008C16.9008 4 16.0008 4.9 16.0008 6V44.56C15.1408 45.32 14.3408 46.14 13.6408 47.06C9.70084 52.24 4.84084 61.74 4.10084 77.68C4.02084 79.34 4.62084 80.92 5.76084 82.14C6.90084 83.34 8.50084 84.02 10.1608 84.02C13.2608 84.02 15.8608 81.66 16.2008 78.52C16.7408 73.28 18.4008 67.88 20.0008 63.58V82.02C20.0008 83.12 20.9008 84.02 22.0008 84.02V122.02C22.0008 123.12 22.9008 124.02 24.0008 124.02H32.0008C33.0008 124.02 33.8608 123.26 33.9808 122.26L36.0008 106.14L38.0208 122.26C38.1408 123.26 39.0008 124.02 40.0008 124.02H48.0008C49.1008 124.02 50.0008 123.12 50.0008 122.02V84.02C51.1008 84.02 52.0008 83.12 52.0008 82.02V76.02H122.001C123.101 76.02 124.001 75.12 124.001 74.02V6C124.001 4.9 123.101 4 122.001 4ZM46.0008 120H41.7608L37.9808 89.76C37.8608 88.76 37.0008 88 36.0008 88C35.0008 88 34.1408 88.76 34.0208 89.76L30.2408 120H26.0008V84H46.0008V120ZM48.0008 57.46V80H24.0008V54C24.0008 53.08 23.3808 52.28 22.4808 52.06C21.5808 51.84 20.6608 52.26 20.2408 53.06C19.9608 53.58 13.5008 65.94 12.2208 78.06C12.1008 79.16 11.2208 79.98 10.1608 79.98C9.58084 79.98 9.06084 79.76 8.66084 79.34C8.26084 78.92 8.06084 78.4 8.10084 77.84C8.80084 62.94 13.2408 54.18 16.8408 49.46C19.4608 46.04 23.6008 43.98 27.9608 43.98H73.7408C75.0008 43.98 76.0208 45 76.0208 46.26C76.0208 47.38 75.1808 48.36 74.0608 48.52L53.1808 51.5C50.2408 51.92 48.0208 54.48 48.0208 57.44L48.0008 57.46ZM120.001 72H52.0008V57.46C52.0008 56.48 52.7408 55.62 53.7208 55.48L74.6008 52.5C77.6808 52.06 80.0008 49.38 80.0008 46.28C80.0008 42.82 77.1808 40 73.7208 40H27.9408C25.1608 40 22.4408 40.66 20.0008 41.86V8H120.001V72Z" fill="white"/>
<path d="M106 24H114C115.1 24 116 23.1 116 22V14C116 12.9 115.1 12 114 12H106C104.9 12 104 12.9 104 14V22C104 23.1 104.9 24 106 24ZM108 16H112V20H108V16Z" fill="white"/>
<path d="M106 68H114C115.1 68 116 67.1 116 66V58C116 56.9 115.1 56 114 56H106C104.9 56 104 56.9 104 58V66C104 67.1 104.9 68 106 68ZM108 60H112V64H108V60Z" fill="white"/>
<path d="M110 46C113.3 46 116 43.3 116 40C116 36.7 113.3 34 110 34C106.7 34 104 36.7 104 40C104 43.3 106.7 46 110 46ZM110 38C111.1 38 112 38.9 112 40C112 41.1 111.1 42 110 42C108.9 42 108 41.1 108 40C108 38.9 108.9 38 110 38Z" fill="white"/>
<path d="M92 12H80V16H92V12Z" fill="white"/>
<path d="M100 20H80V24H100V20Z" fill="white"/>
<path d="M92 34H84V38H92V34Z" fill="white"/>
<path d="M100 42H84V46H100V42Z" fill="white"/>
<path d="M92 56H80V60H92V56Z" fill="white"/>
<path d="M100 64H80V68H100V64Z" fill="white"/>
</svg>
