<svg width="30" height="30" viewBox="0 0 30 30" fill="none" xmlns="http://www.w3.org/2000/svg">
<path d="M11.9346 13.6903C12.3213 10.8853 14.171 9.02949 16.9259 8.7009L23.1602 2.41637C21.4212 1.28621 19.4351 0.503398 17.298 0.174805L5.91211 11.5804L9.95976 15.6464L11.9346 13.6903Z" fill="#F3F3F3"/>
<path d="M29.9999 14.9999C29.9999 10.4071 27.9337 6.29893 24.6824 3.54736L19.4512 8.82924C22.132 9.45596 23.7899 11.6647 23.7899 14.8171C23.7899 15.9852 23.1313 17.5953 22.2796 19.1896L27.0412 23.9441C28.8998 21.4471 29.9999 18.3519 29.9999 14.9999Z" fill="#F3F3F3"/>
<path d="M13.7285 14.8169C13.7285 15.9804 15.1559 19.0774 17.8188 22.758C20.231 19.383 21.9152 16.1477 21.9152 14.8169C21.9152 12.0841 20.4232 10.5171 17.8221 10.5171C15.221 10.5171 13.7285 12.0846 13.7285 14.8169ZM17.6805 12.8801C18.7479 12.8801 19.6132 13.7454 19.6132 14.8127C19.6132 15.8801 18.7479 16.7454 17.6805 16.7454C16.6132 16.7454 15.7479 15.8801 15.7479 14.8127C15.7479 13.7454 16.6132 12.8801 17.6805 12.8801Z" fill="#F3F3F3"/>
<path d="M15.0005 29.9997C19.2559 29.9997 23.0949 28.2246 25.8249 25.3783L21.3137 20.8741C20.0902 22.8785 18.8195 24.5744 18.5579 24.9222L17.8234 25.8864L17.0935 24.9222C16.6271 24.3124 13.0248 19.5039 12.0821 16.2002L3.5293 24.6607C6.28086 27.9246 10.3974 29.9997 15.0005 29.9997Z" fill="#F3F3F3"/>
<path d="M8.62875 16.9661L1.08797 9.39111C0.388594 11.1241 0 13.016 0 14.9997C0 18.0002 0.884531 20.7921 2.40141 23.1363L8.62875 16.9661Z" fill="#F3F3F3"/>
<path d="M1.95312 7.60236L4.59078 10.2517L14.8203 0.00439453C9.30266 0.0695508 4.50406 3.11268 1.95312 7.60236Z" fill="#F3F3F3"/>
</svg>
