<svg width="30" height="30" viewBox="0 0 30 30" fill="none" xmlns="http://www.w3.org/2000/svg">
<path d="M15.6914 17.1806C15.3253 17.5467 14.7323 17.5467 14.3658 17.1806L13.6252 16.44L10.7742 19.2188H19.2595L16.4095 16.463L15.6914 17.1806ZM20.7216 10.7812H9.32391L15 16.4062L20.7216 10.7812ZM8.4375 11.2528V19.2188H9.40359L12.9323 15.7477L8.4375 11.2528ZM20.6536 19.2188H21.5625V11.31L17.1244 15.7477L20.6536 19.2188ZM15 0C6.71578 0 0 6.71578 0 15C0 23.2842 6.71578 30 15 30C23.2842 30 30 23.2842 30 15C30 6.71578 23.2842 0 15 0ZM22.5 19.2188C22.5 19.7362 22.08 20.1562 21.5625 20.1562H8.4375C7.92 20.1562 7.5 19.7362 7.5 19.2188V10.7812C7.5 10.2638 7.92 9.84375 8.4375 9.84375H21.5625C22.08 9.84375 22.5 10.2638 22.5 10.7812V19.2188Z" fill="#F3F3F3"/>
</svg>
