<svg width="30" height="30" viewBox="0 0 30 30" fill="none" xmlns="http://www.w3.org/2000/svg">
<path d="M15 0C6.71631 0 0 6.71632 0 15C0 23.2836 6.71631 30 15 30C23.2836 30 29.9998 23.2835 29.9998 15C29.9999 6.71632 23.2836 0 15 0ZM22.9209 21.8867L21.7199 23.0879C21.5055 23.302 20.8776 23.4357 20.8575 23.4357C17.058 23.4688 13.3997 21.9764 10.7117 19.2882C8.01644 16.5913 6.52229 12.92 6.56242 9.10767C6.56242 9.10594 6.69992 8.49606 6.91416 8.28386L8.11512 7.08272C8.55459 6.6412 9.3988 6.44168 9.99019 6.63953L10.2428 6.7238C10.8325 6.92147 11.4516 7.57345 11.6145 8.17412L12.2186 10.3914C12.3815 10.9938 12.1618 11.8508 11.7224 12.2903L10.9205 13.0923C11.7078 16.0071 13.9948 18.2945 16.91 19.0837L17.7116 18.2815C18.1532 17.84 19.0099 17.6204 19.611 17.7831L21.8279 18.3894C22.4287 18.5545 23.0806 19.1697 23.2782 19.7591L23.3625 20.0154C23.5583 20.6051 23.3604 21.4492 22.9209 21.8867Z" fill="#F3F3F3"/>
</svg>
