<svg width="60" height="48" viewBox="0 0 84 68" fill="none" xmlns="http://www.w3.org/2000/svg">
<path d="M76.6214 57.7832C84.4838 49.2498 83.6922 38.2915 83.6672 38.1665V4.83317C83.6672 3.7281 83.2282 2.66829 82.4468 1.88689C81.6654 1.10549 80.6056 0.666504 79.5005 0.666504H54.5005C49.9047 0.666504 46.1672 4.404 46.1672 8.99984V38.1665C46.1672 39.2716 46.6062 40.3314 47.3876 41.1128C48.169 41.8942 49.2288 42.3332 50.3339 42.3332H63.1588C63.0708 44.3931 62.4553 46.396 61.3714 48.1498C59.2547 51.4873 55.2672 53.7665 49.513 54.9165L46.1672 55.5832V67.3332H50.3339C61.9297 67.3332 70.7755 64.1207 76.6214 57.7832ZM30.7589 57.7832C38.6255 49.2498 37.8297 38.2915 37.8047 38.1665V4.83317C37.8047 3.7281 37.3657 2.66829 36.5843 1.88689C35.8029 1.10549 34.7431 0.666504 33.638 0.666504H8.63802C4.04219 0.666504 0.304688 4.404 0.304688 8.99984V38.1665C0.304688 39.2716 0.743674 40.3314 1.52508 41.1128C2.30648 41.8942 3.36629 42.3332 4.47135 42.3332H17.2964C17.2083 44.3931 16.5928 46.396 15.5089 48.1498C13.3922 51.4873 9.40469 53.7665 3.65052 54.9165L0.304688 55.5832V67.3332H4.47135C16.0672 67.3332 24.913 64.1207 30.7589 57.7832Z" fill="#0D0D0D"/>
</svg>
