<svg width="70" height="70" viewBox="0 0 70 70" fill="none" xmlns="http://www.w3.org/2000/svg">
<path d="M45.7689 64.6152H61.923C64.1668 64.6152 66.0738 63.8299 67.6446 62.2597C69.2147 60.6891 70 58.7822 70 56.5382V40.3846C70 38.1407 69.2151 36.2341 67.6446 34.6639C66.0739 33.0938 64.1664 32.3082 61.923 32.3082H52.4999C51.3785 32.3082 50.4247 31.9153 49.6394 31.1303C48.8541 30.3457 48.4615 29.3916 48.4615 28.2693V26.9239C48.4615 23.951 49.5134 21.4137 51.6166 19.31C53.7199 17.2072 56.2578 16.1555 59.231 16.1555H61.923C62.6526 16.1555 63.2834 15.8884 63.8165 15.3559C64.3491 14.8234 64.6156 14.1922 64.6156 13.4629V8.07769C64.6156 7.34967 64.3491 6.71728 63.8165 6.18463C63.2829 5.65228 62.6527 5.385 61.923 5.385H59.2308C56.3139 5.385 53.5304 5.95374 50.88 7.08917C48.2298 8.22475 45.9373 9.76065 44.0021 11.6959C42.0673 13.6312 40.5317 15.9233 39.396 18.5737C38.2604 21.224 37.6924 24.0073 37.6924 26.9238V56.5388C37.6924 58.7828 38.4777 60.6896 40.048 62.2598C41.6182 63.83 43.5256 64.6152 45.7689 64.6152Z" fill="#0D0D0D"/>
<path d="M2.35692 62.2597C3.927 63.8299 5.83406 64.6152 8.07795 64.6152H24.2315C26.4753 64.6152 28.3823 63.8299 29.9525 62.2597C31.5226 60.689 32.3076 58.7822 32.3076 56.5382V40.3846C32.3076 38.1407 31.5226 36.2341 29.9525 34.6639C28.3823 33.0938 26.4752 32.3082 24.2315 32.3082H14.8084C13.687 32.3082 12.7325 31.9153 11.9473 31.1303C11.1629 30.3452 10.7695 29.3916 10.7695 28.2693V26.9239C10.7695 23.951 11.8213 21.4137 13.925 19.31C16.0281 17.2072 18.5654 16.1555 21.5389 16.1555H24.2315C24.9605 16.1555 25.5919 15.8884 26.1244 15.3559C26.6573 14.8234 26.9241 14.1922 26.9241 13.4629V8.07769C26.9241 7.34967 26.6573 6.71728 26.1244 6.18463C25.592 5.65228 24.9607 5.385 24.2315 5.385H21.5389C18.6224 5.385 15.8391 5.95374 13.1884 7.08917C10.5386 8.22475 8.24636 9.76065 6.31101 11.6959C4.37581 13.6312 2.83932 15.9239 1.70433 18.5737C0.568907 21.2234 0.000606537 24.0073 0.000606537 26.9238V56.5388C0.00104904 58.7828 0.785652 60.6896 2.35692 62.2597Z" fill="#0D0D0D"/>
</svg>
