<svg width="30" height="30" viewBox="0 0 30 30" fill="none" xmlns="http://www.w3.org/2000/svg">
<g clip-path="url(#clip0_102_253)">
<path fill-rule="evenodd" clip-rule="evenodd" d="M15 0C23.2846 0 30 6.71543 30 15C30 23.2846 23.2846 30 15 30C6.71543 30 0 23.2846 0 15C0 6.71543 6.71543 0 15 0ZM18.3691 6.21152C18.3697 6.47988 18.4488 10.3617 22.5217 10.6037C22.5217 11.7229 22.5229 12.5344 22.5229 13.6025C22.2146 13.6201 19.8416 13.4479 18.3645 12.1307L18.3598 17.9689C18.416 22.0213 15.4342 24.4869 11.5359 23.635C4.81465 21.6246 7.04824 11.6561 13.7971 12.7225C13.7971 15.941 13.7988 12.7219 13.7988 15.941C11.0109 15.5309 10.0781 17.85 10.8193 19.5111C11.4932 21.0229 14.2693 21.3504 15.2379 19.2176C15.3475 18.8004 15.402 18.324 15.402 17.7896V6.19688L18.3691 6.21152Z" fill="#F3F3F3"/>
</g>
<defs>
<clipPath id="clip0_102_253">
<rect width="30" height="30" fill="white"/>
</clipPath>
</defs>
</svg>
