<svg width="30" height="30" viewBox="0 0 30 30" fill="none" xmlns="http://www.w3.org/2000/svg">
<g clip-path="url(#clip0_155_192)">
<path fill-rule="evenodd" clip-rule="evenodd" d="M15 30C6.71575 30 0 23.2843 0 15C0 6.71575 6.71575 0 15 0C23.2843 0 30 6.71575 30 15C30 23.2843 23.2843 30 15 30ZM15.4944 23.3453C20.4122 23.3433 24.4119 19.3427 24.4138 14.4259C24.4148 12.0427 23.4879 9.80175 21.8039 8.11588C20.1199 6.42994 17.8804 5.50103 15.4943 5.5C10.578 5.5 6.57675 9.50106 6.57475 14.4189C6.57412 15.9909 6.98481 17.5253 7.76537 18.878L6.5 23.5L11.2283 22.2597C12.5311 22.9703 13.9979 23.3448 15.4908 23.3453H15.4944Z" fill="#F3F3F3"/>
<path fill-rule="evenodd" clip-rule="evenodd" d="M11.4468 20.6448L8.64089 21.3808L9.38983 18.6451L9.21358 18.3646C8.47145 17.1843 8.07952 15.8201 8.08008 14.4193C8.0817 10.3318 11.4074 7.00635 15.4967 7.00635C17.4768 7.00704 19.3382 7.77916 20.7379 9.18047C22.1376 10.5818 22.908 12.4443 22.9072 14.4253C22.9055 18.5131 19.5799 21.8388 15.4938 21.8388H15.4908C14.1605 21.8383 12.8557 21.4809 11.7175 20.8055L11.4468 20.6448ZM19.9873 16.5468C19.9316 16.4538 19.7831 16.3981 19.5602 16.2865C19.3373 16.1749 18.2416 15.6358 18.0373 15.5614C17.8331 15.487 17.6844 15.4499 17.5359 15.6729C17.3873 15.896 16.9602 16.3981 16.8302 16.5468C16.7002 16.6955 16.5701 16.7142 16.3474 16.6026C16.1245 16.491 15.4064 16.2557 14.5551 15.4964C13.8926 14.9054 13.4453 14.1757 13.3153 13.9525C13.1853 13.7294 13.3015 13.6088 13.413 13.4977C13.5133 13.3978 13.6359 13.2373 13.7473 13.1072C13.8588 12.9771 13.8959 12.8841 13.9701 12.7355C14.0445 12.5867 14.0073 12.4565 13.9516 12.345C13.8959 12.2334 13.4501 11.1364 13.2645 10.6902C13.0835 10.2556 12.8998 10.3145 12.763 10.3076C12.6331 10.3011 12.4845 10.2997 12.3359 10.2997C12.1873 10.2997 11.9458 10.3555 11.7416 10.5786C11.5373 10.8017 10.9615 11.3409 10.9615 12.4378C10.9615 13.5348 11.7601 14.5946 11.8716 14.7433C11.983 14.8921 13.4431 17.1432 15.6788 18.1085C16.2105 18.3382 16.6256 18.4753 16.9493 18.578C17.4832 18.7477 17.9691 18.7237 18.353 18.6663C18.7813 18.6023 19.6716 18.1272 19.8574 17.6067C20.043 17.086 20.043 16.6397 19.9873 16.5468Z" fill="#F3F3F3"/>
</g>
<defs>
<clipPath id="clip0_155_192">
<rect width="30" height="30" fill="white"/>
</clipPath>
</defs>
</svg>
